# xmcd CD database file
#
# Track frame offsets:
#	150
#	18847
#	33730
#	53241
#	77177
#	90519
#	106530
#	124028
#	140853
#
# Disc length: 2088 seconds
#
# Revision: 1
# Processed by: cddbd v1.5.2PL0 Copyright (c) Steve Scherf et al.
# Submitted via: CDex 1.70beta2
#
DISCID=6e082609
DTITLE=Joe Albany Trio - Portrait Of A Legend - Unissued 1966 Sessions
DYEAR=2001
DGENRE=Jazz
TTITLE0=Barbados (Charlie Parker)
TTITLE1=Blue Bird (Charlie Parker)
TTITLE2=My Little Sued Shoes (Charlie Parker)
TTITLE3=There Is No Greater Love (I.Jones-M.Symes)
TTITLE4=Au Private (Charlie Parker)
TTITLE5=Lush Life (Billy Strayhorn)
TTITLE6=A B Blues II After Bird (Joe Albany)
TTITLE7=Old Old Friends (Joe Albany)
TTITLE8=Woodyn You (Dizzy Gillespie)
EXTD=Joe Albany Trio: Joe Albany (piano) - Leroy Vinnegar (bass) - Frank Capp (drums).\nRecorded in Hollywood, California, 1966 YEAR: 2001
EXTT0=
EXTT1=
EXTT2=
EXTT3=
EXTT4=
EXTT5=
EXTT6=
EXTT7=
EXTT8=
PLAYORDER=
